<svg data-v-0dd9719b="" version="1.0" xmlns="http://www.w3.org/2000/svg" xmlns:xlink="http://www.w3.org/1999/xlink" width="100%" height="100%" viewBox="0 0 340.000000 250.000000" preserveAspectRatio="xMidYMid meet" color-interpolation-filters="sRGB" style="margin: auto;"> <rect data-v-0dd9719b="" x="0" y="0" width="100%" height="100%" fill="#fff" fill-opacity="1" class="background"></rect> <rect data-v-0dd9719b="" x="0" y="0" width="100%" height="100%" fill="url(#watermark)" fill-opacity="1" class="watermarklayer"></rect> <g data-v-0dd9719b="" fill="#62338f" class="icon-text-wrapper icon-svg-group iconsvg" transform="translate(46.94999694824219,95.00869560241699)"><g class="iconsvg-imagesvg" transform="translate(0,0)"><g><rect fill="#62338f" fill-opacity="0" stroke-width="2" x="0" y="0" width="60" height="59.98260504453709" class="image-rect"></rect> <svg x="0" y="0" width="60" height="59.98260504453709" filtersec="colorsb258945546" class="image-svg-svg primary" style="overflow: visible;"><svg version="1.1" xmlns="http://www.w3.org/2000/svg" xmlns:xlink="http://www.w3.org/1999/xlink" x="0px" y="0px" viewBox="7.981452941894531 6.380967617034912 786.908203125 786.68359375" enable-background="new 0 0 800 800" xml:space="preserve">
<g id="Layer_2" display="none">
</g>
<g id="Layer_1">
	<path fill="#62338F" d="M478.82,13.98C396.06-2.51,307.15,7.57,227.35,46.84c0,14.95,0,338.02,0,352.93
		c0,115.52,111.42,199.43,222.42,167.16V460.15C398.32,501.16,324,463.57,324,399.72c0-9.88,0-271.11,0-285.72
		C564.45,48.88,772.86,292.19,672.1,519.9v165.44C905.54,459.68,786.79,75.52,478.82,13.98z"></path>
	<path fill="#7C7B7C" d="M353.09,232.57v106.81c51.05-40.91,125.73-3.63,125.73,60.36c0,16.13,0,270.2,0,285.79
		C237.35,750.88,30.55,506.31,130.7,279.63V114.18c-160.68,152.09-163.95,407.59-7.58,563.88c113.27,115.74,298,150.64,452.38,74.64
		c0-20.26,0-332.74,0-353.01C575.3,284.24,464.38,200.44,353.09,232.57z"></path>
</g>
</svg></svg> <!----></g></g> <g transform="translate(67,14.291303634643555)"><g data-gra="path-name" fill-rule="" class="tp-name iconsvg-namesvg"><g transform="scale(1)"><g><path d="M26.98-12.01L26.98-10.67 24.3-10.67 24.3-3.57Q24.3-0.4 22.15 0.98 20.01 2.37 15.28 2.37L15.28 2.37Q10.76 2.37 7.39 0.4 4.02-1.56 2.23-5.07 0.45-8.58 0.45-13.13L0.45-13.13Q0.45-17.78 2.5-21.26 4.56-24.74 8.02-26.6 11.48-28.45 15.59-28.45L15.59-28.45Q18.89-28.45 23-27.51L23-27.51 24.07-27.29Q24.16-24.66 24.66-20.01L24.66-20.01 23.45-19.74Q22.69-22.65 21.66-24.05 20.64-25.46 18.71-26.17L18.71-26.17Q18.04-26.44 16.95-26.6 15.86-26.75 14.92-26.75L14.92-26.75Q11.84-26.75 9.51-25.21 7.19-23.67 5.94-20.72 4.69-17.78 4.69-13.67L4.69-13.67Q4.69-9.87 5.9-6.61 7.1-3.35 9.63-1.32 12.15 0.71 15.9 0.71L15.9 0.71Q18.4 0.71 19.59-0.29 20.77-1.3 20.77-2.99L20.77-2.99 20.77-10.67 16.53-10.67 16.53-12.01 26.98-12.01ZM51.68 0.4L54.71 0.4 54.71 1.7 44.67 1.7 44.67 0.4 47.84 0.4Q47.3-1.52 46.63-3.44L46.63-3.44 44.89-9.02 36.09-9.02Q34.3-3.66 33.05 0.4L33.05 0.4 37.25 0.4 37.25 1.7 27.87 1.7 27.87 0.4 30.82 0.4 40.91-28.18 42.25-28.45Q50.07-4.69 51.68 0.4L51.68 0.4ZM36.71-10.85L44.31-10.85 40.6-22.51 36.71-10.85ZM83.08-27.78L83.08-26.49 80-26.49Q78.03-21.26 74.88-12.62 71.73-3.98 69.5 2.19L69.5 2.19 68.16 2.19Q65.88-4.65 63.04-13.13 60.21-21.62 58.56-26.49L58.56-26.49 55.61-26.49 55.61-27.83 65.93-27.78 65.93-26.49 62.53-26.49Q67.18-12.15 69.9-4.06L69.9-4.06 74.86-18Q75.53-19.97 77.85-26.49L77.85-26.49 73.74-26.49 73.74-27.83 83.08-27.78ZM102.82-1.21Q103.53-0.63 103.53 0.18L103.53 0.18Q103.53 0.8 103.06 1.25 102.6 1.7 101.75 1.7L101.75 1.7 90.94 1.7Q89.06 1.7 87.72 0.36 86.38-0.98 86.38-2.9L86.38-2.9 86.38-25.46Q86.38-25.64 86.25-25.77 86.11-25.91 85.94-25.91L85.94-25.91 83.97-25.91 83.97-27.02Q85.49-27.47 86.34-27.76 87.19-28.05 88.57-28.67L88.57-28.67 88.93-28.76Q89.33-28.76 89.64-28.45L89.64-28.45Q90.09-28.14 90.33-27.98 90.58-27.83 90.98-27.83L90.98-27.83 97.41-27.78Q98.35-27.78 98.89-28 99.42-28.23 99.87-28.59L99.87-28.59Q99.96-28.63 100.25-28.83 100.54-29.03 100.94-29.03L100.94-29.03Q101.43-29.03 101.81-28.65 102.19-28.27 102.19-27.78L102.19-27.78Q102.19-27.25 101.81-26.87 101.43-26.49 100.94-26.49L100.94-26.49 89.87-26.49 89.87-14.38 97.41-14.38Q98.35-14.38 98.89-14.61 99.42-14.83 99.87-15.19L99.87-15.19Q99.96-15.23 100.25-15.43 100.54-15.63 100.94-15.63L100.94-15.63Q101.43-15.63 101.81-15.25 102.19-14.87 102.19-14.34L102.19-14.34Q102.19-13.8 101.81-13.44 101.43-13.09 100.94-13.09L100.94-13.09 89.87-13.09 89.87-2.28Q89.87-1.83 90.18-1.54 90.49-1.25 90.94-1.25L90.94-1.25 98.35-1.25Q99.65-1.25 100.18-2.05 100.72-2.86 100.72-4.73L100.72-4.73 101.21-4.73Q101.21-3.53 101.41-2.88 101.61-2.23 101.9-1.97 102.19-1.7 102.82-1.21L102.82-1.21ZM127.92 0.4L130.47 0.4 130.47 1.7 123.99 1.7Q121.27-1.74 118.05-5.94 114.83-10.14 112.82-12.77L112.82-12.77 111.57-12.77 111.57 0.4 115.33 0.4 115.33 1.7 104.43 1.7 104.43 0.4 108.09 0.4 108.09-26.49 104.43-26.49 104.43-27.83 115.33-27.78 115.33-26.49 111.57-26.49 111.57-14.11 112.73-14.11 123.5-26.49 119.57-26.49 119.57-27.83 129.48-27.83 129.48-26.49 126.13-26.49 125.15-25.41Q118.5-18.4 115.64-15.14L115.64-15.14Q118.27-11.61 127.92 0.4L127.92 0.4ZM155.17 0.4L158.2 0.4 158.2 1.7 148.15 1.7 148.15 0.4 151.33 0.4Q150.79-1.52 150.12-3.44L150.12-3.44 148.38-9.02 139.58-9.02Q137.79-3.66 136.54 0.4L136.54 0.4 140.74 0.4 140.74 1.7 131.36 1.7 131.36 0.4 134.31 0.4 144.4-28.18 145.74-28.45Q153.56-4.69 155.17 0.4L155.17 0.4ZM140.2-10.85L147.8-10.85 144.09-22.51 140.2-10.85ZM178.84-1.21Q179.55-0.67 179.55 0.18L179.55 0.18Q179.55 0.8 179.08 1.25 178.62 1.7 177.77 1.7L177.77 1.7 167.36 1.7Q165.44 1.7 164.1 0.36 162.76-0.98 162.76-2.9L162.76-2.9 162.76-26.49 159.1-26.49 159.1-27.83 170-27.78 170-26.49 166.29-26.49 166.29-2.28Q166.29-1.83 166.6-1.54 166.91-1.25 167.36-1.25L167.36-1.25 174.37-1.25Q175.67-1.25 176.23-2.05 176.78-2.86 176.78-4.73L176.78-4.73 177.28-4.73Q177.28-3.53 177.48-2.88 177.68-2.23 177.95-1.97 178.21-1.7 178.84-1.21L178.84-1.21Z" transform="translate(-0.45000001788139343, 29.030000686645508)"></path></g> <!----> <!----> <!----> <!----> <!----> <!----> <!----></g></g> <!----></g></g><defs v-gra="od"></defs></svg>